<svg xmlns="http://www.w3.org/2000/svg" width="30" height="30" viewBox="0 0 30 30">
  <defs>
    <style>
      .c-svg__close {
        fill: #f64747;
      }
    </style>
  </defs>
  <path class="c-svg__close" d="M17.183,15.156,29.513,2.88a1.487,1.487,0,0,0,0-2.118,1.519,1.519,0,0,0-2.137,0L15.057,13.027,2.624.579A1.514,1.514,0,0,0,.487,2.724L12.911,15.163.442,27.577a1.49,1.49,0,0,0,0,2.118,1.519,1.519,0,0,0,2.137,0l12.458-12.4,12.383,12.4a1.514,1.514,0,1,0,2.137-2.145Z" transform="translate(0 -0.135)"/>
</svg>
