<svg xmlns="http://www.w3.org/2000/svg" width="29.998" height="30" viewBox="0 0 29.998 30">
  <path id="filter" d="M29.327,0H1.672A1.172,1.172,0,0,0,.5,1.172,11.445,11.445,0,0,0,4.338,9.719L9.47,14.281a4.176,4.176,0,0,1,1.4,3.119V28.827a1.172,1.172,0,0,0,1.822.975l6.914-4.609a1.172,1.172,0,0,0,.522-.975V17.4a4.176,4.176,0,0,1,1.4-3.119L26.66,9.719A11.445,11.445,0,0,0,30.5,1.172,1.172,1.172,0,0,0,29.327,0ZM25.1,7.967l-5.132,4.562a6.521,6.521,0,0,0-2.187,4.87V23.59l-4.57,3.047V17.4a6.522,6.522,0,0,0-2.187-4.87L5.9,7.967A9.1,9.1,0,0,1,2.92,2.344H28.079A9.1,9.1,0,0,1,25.1,7.967Zm0,0" transform="translate(-0.5)" fill="#34495e"/>
</svg>
