<svg id="Group_9" data-name="Group 9" xmlns="http://www.w3.org/2000/svg" width="28.143" height="27.2" viewBox="0 0 28.143 27.2">
  <path id="Path_2" data-name="Path 2" d="M281.323,34.928a.707.707,0,1,0,1.415,0V10.845l4.232,4.232a.706.706,0,0,0,1-.995l-5.434-5.434a.723.723,0,0,0-.995,0l-5.434,5.434a.7.7,0,1,0,.995.995l4.232-4.232V34.928Z" transform="translate(-260.034 -8.436)" fill="#34495e"/>
  <path id="Path_3" data-name="Path 3" d="M12.07,28.758a.7.7,0,0,0-.995,0L6.843,32.99V8.907a.707.707,0,0,0-1.415,0V32.99L1.2,28.758a.7.7,0,0,0-.995.995l5.434,5.434a.708.708,0,0,0,1,0l5.434-5.434A.717.717,0,0,0,12.07,28.758Z" transform="translate(0 -8.2)" fill="#34495e"/>
</svg>
